<svg width="83" height="24" viewBox="0 0 83 24" fill="none" xmlns="http://www.w3.org/2000/svg">
<path d="M17.888 17.336C16.992 21.304 13.792 23.512 9.568 23.512C4.224 23.512 0.928 20.056 0.928 14.392C0.928 8.536 4.256 5.24 9.376 5.24C14.528 5.24 17.76 8.664 17.76 14.296V15.384H5.92C6.176 18.136 7.456 19.608 9.568 19.608C11.168 19.608 12.256 18.904 12.768 17.336H17.888ZM9.376 9.144C7.552 9.144 6.4 10.328 6.016 12.568H12.704C12.32 10.328 11.168 9.144 9.376 9.144ZM38.8773 8.216H33.5012C32.8933 6.072 31.3573 4.92 29.1812 4.92C25.8853 4.92 23.9972 7.672 23.9972 12.152C23.9972 16.664 25.8532 19.32 29.1812 19.32C31.2292 19.32 32.8293 18.232 33.4373 16.184H38.8773C37.7572 20.984 33.8853 23.512 29.2452 23.512C22.7492 23.512 18.7492 19.192 18.7492 12.152C18.7492 5.112 22.7492 0.727999 29.3092 0.727999C33.9813 0.727999 37.9493 3.256 38.8773 8.216ZM47.9097 23.512C42.6937 23.512 39.4617 20.056 39.4617 14.392C39.4617 8.536 42.7897 5.24 47.9097 5.24C53.1257 5.24 56.3897 8.76 56.3897 14.392C56.3897 20.216 53.0297 23.512 47.9097 23.512ZM47.9097 19.544C50.1817 19.544 51.3657 17.752 51.3657 14.392C51.3657 11.064 50.1497 9.208 47.9097 9.208C45.6697 9.208 44.4857 11.032 44.4857 14.392C44.4857 17.72 45.7017 19.544 47.9097 19.544ZM57.699 23V5.784H62.595V7.96C63.683 6.104 65.315 5.24 67.299 5.24C69.347 5.24 71.075 6.168 71.939 8.088C73.123 6.136 74.947 5.24 77.091 5.24C80.291 5.24 82.659 7.256 82.659 11.512V23H77.763V12.504C77.763 10.328 77.027 9.208 75.459 9.208C73.763 9.208 72.611 10.904 72.611 13.112V23H67.747V12.504C67.747 10.328 66.979 9.208 65.411 9.208C63.715 9.208 62.595 10.904 62.595 13.112V23H57.699Z" fill="#F24738"/>
</svg>
